<?xml version="1.0" standalone="no"?>
<!DOCTYPE svg PUBLIC "-//W3C//DTD SVG 20010904//EN"
 "http://www.w3.org/TR/2001/REC-SVG-20010904/DTD/svg10.dtd">
<svg version="1.0" xmlns="http://www.w3.org/2000/svg"
 width="700.000000pt" height="700.000000pt" viewBox="0 0 700.000000 700.000000"
 preserveAspectRatio="xMidYMid meet">
<metadata>
Created by potrace 1.14, written by Peter Selinger 2001-2017
</metadata>
<g transform="translate(0.000000,700.000000) scale(0.100000,-0.100000)"
fill="#000000" stroke="none">
<path d="M3307 6994 c-1 -1 -44 -5 -95 -8 -51 -4 -102 -9 -112 -11 -10 -2 -43
-6 -72 -9 -29 -4 -64 -8 -78 -11 -13 -3 -42 -7 -65 -10 -22 -4 -56 -10 -75
-15 -19 -5 -51 -12 -70 -15 -19 -3 -53 -11 -75 -17 -22 -5 -44 -11 -50 -12
-61 -14 -310 -95 -385 -126 -30 -12 -68 -28 -85 -34 -60 -23 -346 -166 -422
-212 -75 -46 -207 -130 -228 -146 -5 -5 -53 -40 -105 -79 -715 -537 -1209
-1357 -1346 -2234 -31 -200 -39 -313 -39 -560 0 -202 4 -285 21 -420 66 -557
276 -1109 597 -1569 64 -91 124 -173 137 -186 3 -3 37 -44 76 -91 238 -284
594 -582 909 -759 188 -105 301 -161 446 -218 88 -35 247 -92 270 -97 9 -2 47
-12 85 -24 71 -20 220 -57 264 -65 14 -2 53 -9 88 -16 78 -14 126 -21 267 -37
90 -10 555 -10 660 0 127 12 342 44 355 52 3 2 23 6 45 9 22 4 99 22 170 42
72 19 137 36 145 38 47 12 292 106 396 152 882 397 1568 1151 1877 2064 56
166 116 396 132 505 3 23 7 50 9 62 23 120 39 301 40 458 l1 119 -1610 1
c-885 1 -1616 -1 -1622 -3 -10 -3 -13 -101 -13 -443 l0 -439 1108 0 c610 0
1111 -3 1114 -6 5 -5 -6 -38 -42 -119 -5 -11 -18 -42 -30 -70 -74 -176 -217
-411 -357 -585 -76 -95 -272 -295 -348 -355 -27 -22 -54 -45 -60 -51 -5 -6
-48 -38 -95 -72 -257 -183 -545 -322 -830 -401 -99 -27 -131 -35 -190 -46 -14
-3 -36 -7 -50 -10 -14 -3 -45 -8 -70 -11 -25 -3 -47 -8 -50 -9 -14 -9 -224
-19 -370 -19 -169 1 -202 3 -385 28 -160 22 -431 98 -605 170 -233 98 -540
287 -705 435 -282 254 -481 512 -636 826 -95 194 -182 432 -205 565 -3 14 -7
33 -10 42 -45 149 -70 525 -51 758 13 153 24 223 53 355 14 61 27 121 30 135
8 41 84 260 113 325 98 226 233 450 380 632 147 183 383 402 550 511 31 20 58
39 61 42 8 9 281 164 290 165 3 1 30 13 60 27 112 52 371 141 450 154 14 3 33
7 42 10 42 13 150 33 215 39 32 4 60 8 64 11 7 4 219 18 274 17 l40 0 0 437 0
438 -98 -2 c-54 0 -99 -2 -100 -2z"/>
<path d="M3770 5395 l0 -1605 440 0 c242 0 441 3 441 8 1 4 2 726 3 1605 l1
1597 -442 0 -443 0 0 -1605z"/>
<path d="M6114 6121 c-2 -2 -4 -528 -4 -1168 l0 -1163 445 0 445 0 -2 1167 -3
1168 -438 0 c-241 0 -440 -2 -443 -4z"/>
<path d="M4940 4593 l0 -803 445 0 445 0 0 803 0 802 -445 0 -445 1 0 -803z"/>
</g>
</svg>
