<svg viewBox="0 0 20 20" fill="none" xmlns="http://www.w3.org/2000/svg">
<path d="M10.8337 7.91659H2.50033C2.04199 7.91659 1.66699 8.29159 1.66699 8.74992C1.66699 9.20825 2.04199 9.58325 2.50033 9.58325H10.8337C11.292 9.58325 11.667 9.20825 11.667 8.74992C11.667 8.29159 11.292 7.91659 10.8337 7.91659ZM10.8337 4.58325H2.50033C2.04199 4.58325 1.66699 4.95825 1.66699 5.41659C1.66699 5.87492 2.04199 6.24992 2.50033 6.24992H10.8337C11.292 6.24992 11.667 5.87492 11.667 5.41659C11.667 4.95825 11.292 4.58325 10.8337 4.58325ZM15.0003 11.2499V8.74992C15.0003 8.29159 14.6253 7.91659 14.167 7.91659C13.7087 7.91659 13.3337 8.29159 13.3337 8.74992V11.2499H10.8337C10.3753 11.2499 10.0003 11.6249 10.0003 12.0833C10.0003 12.5416 10.3753 12.9166 10.8337 12.9166H13.3337V15.4166C13.3337 15.8749 13.7087 16.2499 14.167 16.2499C14.6253 16.2499 15.0003 15.8749 15.0003 15.4166V12.9166H17.5003C17.9587 12.9166 18.3337 12.5416 18.3337 12.0833C18.3337 11.6249 17.9587 11.2499 17.5003 11.2499H15.0003ZM2.50033 12.9166H7.50033C7.95866 12.9166 8.33366 12.5416 8.33366 12.0833C8.33366 11.6249 7.95866 11.2499 7.50033 11.2499H2.50033C2.04199 11.2499 1.66699 11.6249 1.66699 12.0833C1.66699 12.5416 2.04199 12.9166 2.50033 12.9166Z" fill="#212121"/>
</svg>
