<svg viewBox="0 0 44 35" fill="none" xmlns="http://www.w3.org/2000/svg">
<g clip-path="url(#clip0_2301_22312)">
<path d="M7.9995 34.0332V31.7694C7.9995 30.9014 7.47116 30.3356 6.56555 30.3356C6.11283 30.3356 5.6223 30.4865 5.28267 30.9771C5.01867 30.562 4.64141 30.3356 4.07542 30.3356C3.69798 30.3356 3.32089 30.4487 3.01891 30.8638V30.4111H2.22656V34.0332H3.01891V32.0334C3.01891 31.3921 3.35853 31.0902 3.88687 31.0902C4.41487 31.0902 4.67922 31.4298 4.67922 32.0334V34.0332H5.47156V32.0334C5.47156 31.3921 5.84866 31.0902 6.33919 31.0902C6.86753 31.0902 7.13153 31.4298 7.13153 32.0334V34.0332H7.9995V34.0332ZM19.7336 30.4111H18.4509V29.3169H17.6585V30.4111H16.9416V31.1278H17.6584V32.7881C17.6584 33.6183 17.998 34.1086 18.9036 34.1086C19.2432 34.1086 19.6203 33.9955 19.8847 33.8446L19.6581 33.1654C19.4318 33.3163 19.1678 33.3541 18.979 33.3541C18.6018 33.3541 18.4509 33.1277 18.4509 32.7503V31.1278H19.7336V30.4111V30.4111ZM26.4498 30.3355C25.997 30.3355 25.6952 30.562 25.5065 30.8638V30.4111H24.7142V34.0332H25.5065V31.9958C25.5065 31.3921 25.7705 31.0525 26.261 31.0525C26.412 31.0525 26.6007 31.0903 26.7516 31.128L26.9779 30.3734C26.827 30.3356 26.6007 30.3356 26.4498 30.3356V30.3355ZM16.3002 30.7129C15.9228 30.4487 15.3946 30.3356 14.8286 30.3356C13.9232 30.3356 13.3195 30.7883 13.3195 31.5052C13.3195 32.109 13.7723 32.4485 14.5646 32.5617L14.9419 32.5996C15.357 32.6748 15.5833 32.7881 15.5833 32.9768C15.5833 33.2408 15.2815 33.4295 14.7532 33.4295C14.225 33.4295 13.8099 33.2408 13.5457 33.0523L13.1685 33.6559C13.5835 33.9577 14.1495 34.1086 14.7153 34.1086C15.7719 34.1086 16.3757 33.6183 16.3757 32.939C16.3757 32.2976 15.8851 31.958 15.1304 31.8449L14.7532 31.807C14.4135 31.7692 14.1495 31.694 14.1495 31.4676C14.1495 31.2034 14.4135 31.0525 14.8286 31.0525C15.2815 31.0525 15.7342 31.2411 15.9606 31.3543L16.3002 30.7129V30.7129ZM37.354 30.3356C36.9011 30.3356 36.5993 30.562 36.4106 30.8638V30.4111H35.6183V34.0332H36.4106V31.9958C36.4106 31.3921 36.6748 31.0525 37.1651 31.0525C37.3162 31.0525 37.5049 31.0903 37.6558 31.128L37.8822 30.3734C37.7313 30.3356 37.5049 30.3356 37.354 30.3356V30.3356ZM27.2421 32.2221C27.2421 33.3163 27.9966 34.1086 29.1664 34.1086C29.6946 34.1086 30.0719 33.9955 30.4491 33.6937L30.0719 33.0523C29.77 33.2786 29.4682 33.3917 29.1286 33.3917C28.4872 33.3917 28.0345 32.939 28.0345 32.2221C28.0345 31.543 28.4872 31.0902 29.1286 31.0525C29.4682 31.0525 29.77 31.1656 30.0719 31.3921L30.4491 30.7507C30.0719 30.4487 29.6946 30.3356 29.1664 30.3356C27.9966 30.3356 27.2421 31.128 27.2421 32.2221ZM34.5619 32.2221V30.4111H33.7696V30.8638C33.5054 30.5243 33.1281 30.3356 32.6376 30.3356C31.6189 30.3356 30.8266 31.128 30.8266 32.2221C30.8266 33.3163 31.6189 34.1086 32.6376 34.1086C33.1658 34.1086 33.5432 33.9201 33.7696 33.5805V34.0332H34.5619V32.2221V32.2221ZM31.6565 32.2221C31.6565 31.5807 32.0716 31.0525 32.7507 31.0525C33.3921 31.0525 33.845 31.543 33.845 32.2221C33.845 32.8636 33.3921 33.3917 32.7507 33.3917C32.0716 33.3539 31.6565 32.8636 31.6565 32.2221V32.2221ZM22.1862 30.3356C21.1297 30.3356 20.375 31.0902 20.375 32.2221C20.375 33.3541 21.1295 34.1086 22.2239 34.1086C22.752 34.1086 23.2804 33.9577 23.6955 33.6183L23.318 33.0523C23.0162 33.2786 22.639 33.4295 22.2617 33.4295C21.7712 33.4295 21.2806 33.2032 21.1674 32.5616H23.8464V32.2599C23.8842 31.0902 23.2049 30.3356 22.1861 30.3356H22.1862ZM22.1862 31.0147C22.6766 31.0147 23.0164 31.3167 23.0917 31.8827H21.2052C21.2806 31.3921 21.6202 31.0147 22.1862 31.0147ZM41.8439 32.2221V28.9773H41.0516V30.8638C40.7874 30.5243 40.4101 30.3356 39.9196 30.3356C38.9009 30.3356 38.1086 31.128 38.1086 32.2221C38.1086 33.3163 38.9009 34.1086 39.9196 34.1086C40.448 34.1086 40.8252 33.9201 41.0516 33.5805V34.0332H41.8439V32.2221V32.2221ZM38.9387 32.2221C38.9387 31.5807 39.3536 31.0525 40.0329 31.0525C40.6743 31.0525 41.127 31.543 41.127 32.2221C41.127 32.8636 40.6743 33.3917 40.0329 33.3917C39.3536 33.3539 38.9387 32.8636 38.9387 32.2221V32.2221ZM12.4516 32.2221V30.4111H11.6592V30.8638C11.3951 30.5243 11.0178 30.3356 10.5273 30.3356C9.50856 30.3356 8.71622 31.128 8.71622 32.2221C8.71622 33.3163 9.50856 34.1086 10.5273 34.1086C11.0556 34.1086 11.4329 33.9201 11.6592 33.5805V34.0332H12.4516V32.2221V32.2221ZM9.50856 32.2221C9.50856 31.5807 9.92364 31.0525 10.6027 31.0525C11.2442 31.0525 11.697 31.543 11.697 32.2221C11.697 32.8636 11.2442 33.3917 10.6027 33.3917C9.92364 33.3539 9.50856 32.8636 9.50856 32.2221V32.2221Z" fill="black"/>
<path d="M16.0352 2.90515H27.9203V24.2608H16.0352V2.90515Z" fill="#FF5F00"/>
<path d="M16.7903 13.5831C16.7903 9.24413 18.8277 5.3955 21.9593 2.9052C19.6579 1.09416 16.7527 0 13.5833 0C6.07458 0 0 6.07458 0 13.5831C0 21.0915 6.07458 27.1662 13.5831 27.1662C16.7525 27.1662 19.6577 26.0721 21.9593 24.2608C18.8277 21.8084 16.7903 17.9221 16.7903 13.5831V13.5831Z" fill="#EB001B"/>
<path d="M43.9563 13.5831C43.9563 21.0915 37.8818 27.1662 30.3732 27.1662C27.2038 27.1662 24.2986 26.0721 21.9971 24.2608C25.1664 21.7707 27.1662 17.9221 27.1662 13.5831C27.1662 9.24413 25.1286 5.3955 21.9971 2.9052C24.2985 1.09416 27.2038 0 30.3732 0C37.8818 0 43.9565 6.11239 43.9565 13.5831H43.9563Z" fill="#F79E1B"/>
</g>
<defs>
<clipPath id="clip0_2301_22312">
<rect width="44" height="34.2031" fill="white"/>
</clipPath>
</defs>
</svg>
