<svg viewBox="0 0 33 33" fill="none" xmlns="http://www.w3.org/2000/svg">
<path d="M16 31C24.2843 31 31 24.2843 31 16C31 7.71573 24.2843 1 16 1C7.71573 1 1 7.71573 1 16C1 24.2843 7.71573 31 16 31Z" fill="white"/>
<path d="M28.5028 24.0374H22.5829V16L15.9999 22.4953L9.41697 16V24.0374H3.49705H3.30762C5.95974 28.1963 10.6483 31 15.9999 31C21.3515 31 26.0401 28.243 28.6922 24.0374H28.5028Z" fill="#4C4C4C"/>
<path d="M6.29968 20.6154V8.25629L16 17.8533L25.7003 8.25629V20.6154H30.1956C30.7161 19.1173 31 17.5256 31 15.8403C31 7.6477 24.2808 1 16 1C7.71924 1 1 7.6477 1 15.8403C1 17.5256 1.28391 19.1173 1.80442 20.6154H6.29968V20.6154Z" fill="#FF6B01"/>
<path opacity="0.1" d="M32.082 16.0846C32.082 24.9212 24.9187 32.0847 16.0821 32.0847C7.24547 32.0847 0.0820312 24.9212 0.0820312 16.0846C0.0820312 7.24812 7.24547 0.0847168 16.0821 0.0847168C24.9186 0.0847168 32.082 7.24812 32.082 16.0846" fill="#BEBEBE"/>
</svg>
