<svg viewBox="0 0 20 20" fill="none" xmlns="http://www.w3.org/2000/svg">
  <path fill-rule="evenodd" clip-rule="evenodd"
        d="M2 10.3382C2 5.73854 5.74035 2 10.3333 2C14.9263 2 18.6667 5.73854 18.6667 10.3382C18.6667 14.9281 14.9263 18.6667 10.3333 18.6667C5.74035 18.6667 2 14.9281 2 10.3382ZM9.71429 12.6429C9.71429 13.1143 9.32857 13.5 8.85714 13.5C8.38571 13.5 8 13.1143 8 12.6429V8.35714C8 7.88571 8.38571 7.5 8.85714 7.5C9.32857 7.5 9.71429 7.88571 9.71429 8.35714V12.6429ZM11.4286 12.6429V8.35714C11.4286 7.88571 11.8143 7.5 12.2857 7.5C12.7571 7.5 13.1429 7.88571 13.1429 8.35714V12.6429C13.1429 13.1143 12.7571 13.5 12.2857 13.5C11.8143 13.5 11.4286 13.1143 11.4286 12.6429Z"
        fill="#FF5A00"/>
</svg>
