<svg viewBox="0 0 20 20" fill="none" xmlns="http://www.w3.org/2000/svg">
  <path fill-rule="evenodd" clip-rule="evenodd"
        d="M1.66699 10.0051C1.66699 5.40554 5.40734 1.66699 10.0003 1.66699C14.5933 1.66699 18.3337 5.40554 18.3337 10.0051C18.3337 14.5951 14.5933 18.3337 10.0003 18.3337C5.40734 18.3337 1.66699 14.5951 1.66699 10.0051ZM13.057 10.8485C13.1454 10.7601 13.258 10.6234 13.2822 10.5913C13.4109 10.4224 13.4752 10.2134 13.4752 10.0051C13.4752 9.77119 13.4028 9.55411 13.2661 9.37724C13.2549 9.36603 13.2329 9.34215 13.2043 9.31102C13.1508 9.25278 13.074 9.16919 13.0006 9.09584C12.3411 8.38833 10.6197 7.23059 9.71879 6.87683C9.58205 6.82136 9.23617 6.69996 9.05116 6.69192C8.8742 6.69192 8.70528 6.73212 8.54441 6.81251C8.34331 6.92507 8.18244 7.10195 8.09396 7.31099C8.03765 7.4557 7.94917 7.88986 7.94917 7.8979C7.86069 8.37225 7.81242 9.14408 7.81242 9.99631C7.81242 10.8091 7.86069 11.548 7.93308 12.0304C7.93507 12.0324 7.94199 12.0669 7.95274 12.1205C7.98542 12.2834 8.0535 12.6229 8.12613 12.762C8.30309 13.0997 8.64897 13.3087 9.01899 13.3087H9.05116C9.29248 13.3007 9.79923 13.0917 9.79923 13.0836C10.6519 12.7299 12.333 11.6284 13.0087 10.8968L13.057 10.8485Z"
        fill="#FF5A00"/>
</svg>
