<svg viewBox="0 0 20 20" fill="none" xmlns="http://www.w3.org/2000/svg">
  <path fill-rule="evenodd" clip-rule="evenodd"
        d="M12.6372 10.0432C12.6372 11.4982 11.4572 12.6782 10.0022 12.6782C8.54719 12.6782 7.36719 11.4982 7.36719 10.0432C7.36719 8.58737 8.54719 7.4082 10.0022 7.4082C11.4572 7.4082 12.6372 8.58737 12.6372 10.0432Z"
        stroke="#212121" stroke-width="1.5" stroke-linecap="round" stroke-linejoin="round"/>
  <path fill-rule="evenodd" clip-rule="evenodd"
        d="M2.29199 10.043C2.29199 12.7763 5.74366 16.128 10.002 16.128C14.2595 16.128 17.712 12.7788 17.712 10.043C17.712 7.30717 14.2595 3.95801 10.002 3.95801C5.74366 3.95801 2.29199 7.30967 2.29199 10.043Z"
        stroke="#212121" stroke-width="1.5" stroke-linecap="round" stroke-linejoin="round"/>
  <path
    d="M15.5821 3.06794L3.37214 15.6045C3.14084 15.842 2.97561 16.1249 2.91281 16.391C2.85001 16.6571 2.89479 16.8845 3.03728 17.0233C3.17978 17.1621 3.40832 17.2008 3.67264 17.131C3.93696 17.0612 4.2154 16.8886 4.44671 16.6511L16.6567 4.11451C16.888 3.87702 17.0532 3.59412 17.116 3.32805C17.1788 3.06198 17.1341 2.83454 16.9916 2.69575C16.8491 2.55697 16.6205 2.51821 16.3562 2.58801C16.0919 2.65781 15.8134 2.83045 15.5821 3.06794Z"
    fill="#212121"/>
</svg>
