<svg viewBox="0 0 20 20" fill="none" xmlns="http://www.w3.org/2000/svg">
  <g clip-path="url(#clip0_2974_21953)">
    <path
      d="M3.22672 8.316L8.03972 4.16C8.135 4.0782 8.25172 4.02541 8.37606 4.00789C8.50041 3.99037 8.62717 4.00885 8.74134 4.06115C8.8555 4.11344 8.95229 4.19736 9.02024 4.30296C9.08818 4.40857 9.12445 4.53143 9.12472 4.657V6.846C13.5167 6.896 16.9997 7.776 16.9997 11.939C16.9997 13.619 15.9177 15.283 14.7207 16.153C14.3477 16.425 13.8157 16.083 13.9537 15.643C15.1937 11.679 13.3657 10.626 9.12472 10.565V12.969C9.12472 13.535 8.46072 13.829 8.03972 13.465L3.22672 9.31C3.15556 9.24833 3.09848 9.17208 3.05936 9.08641C3.02025 9.00075 3 8.90768 3 8.8135C3 8.71933 3.02025 8.62626 3.05936 8.5406C3.09848 8.45493 3.15556 8.37768 3.22672 8.316Z"
      fill="#212121"/>
  </g>
  <defs>
    <clipPath id="clip0_2974_21953">
      <rect width="14" height="13" fill="white" transform="translate(3 4)"/>
    </clipPath>
  </defs>
</svg>
