<svg viewBox="0 0 20 20" fill="none" xmlns="http://www.w3.org/2000/svg">
<path d="M15.0057 11.277C14.5134 11.2802 14.0279 11.3925 13.5841 11.6057C13.1403 11.819 12.7493 12.1279 12.4391 12.5103L8.18907 10.552C8.3889 9.94007 8.3889 9.28049 8.18907 8.66862L12.4391 6.71028C12.9404 7.31526 13.6394 7.72368 14.4125 7.86348C15.1857 8.00328 15.9834 7.86547 16.6649 7.47437C17.3463 7.08327 17.8677 6.46401 18.137 5.7259C18.4063 4.98779 18.4063 4.17827 18.1368 3.44021C17.8674 2.70214 17.3459 2.08299 16.6643 1.69201C15.9828 1.30103 15.1851 1.16336 14.4119 1.3033C13.6388 1.44325 12.9399 1.8518 12.4387 2.45686C11.9374 3.06193 11.6661 3.8246 11.6724 4.61028C11.6749 4.80881 11.6944 5.00676 11.7307 5.20195L7.33074 7.22695C6.86164 6.76827 6.26761 6.45821 5.62308 6.33564C4.97855 6.21307 4.31217 6.28342 3.70745 6.53789C3.10272 6.79237 2.58654 7.21963 2.22357 7.76617C1.86061 8.3127 1.66699 8.9542 1.66699 9.61028C1.66699 10.2664 1.86061 10.9079 2.22357 11.4544C2.58654 12.0009 3.10272 12.4282 3.70745 12.6827C4.31217 12.9371 4.97855 13.0075 5.62308 12.8849C6.26761 12.7624 6.86164 12.4523 7.33074 11.9936L11.7307 14.0186C11.6944 14.2138 11.6749 14.4118 11.6724 14.6103C11.6724 15.2696 11.8679 15.914 12.2342 16.4622C12.6004 17.0103 13.121 17.4376 13.7301 17.6899C14.3392 17.9422 15.0094 18.0082 15.656 17.8796C16.3026 17.751 16.8966 17.4335 17.3628 16.9673C17.8289 16.5011 18.1464 15.9072 18.275 15.2606C18.4036 14.614 18.3376 13.9438 18.0853 13.3347C17.833 12.7256 17.4058 12.205 16.8576 11.8387C16.3095 11.4724 15.665 11.277 15.0057 11.277ZM15.0057 2.94362C15.3354 2.94362 15.6576 3.04137 15.9317 3.2245C16.2058 3.40764 16.4194 3.66793 16.5455 3.97248C16.6717 4.27702 16.7047 4.61213 16.6404 4.93543C16.5761 5.25874 16.4173 5.55571 16.1843 5.7888C15.9512 6.02188 15.6542 6.18062 15.3309 6.24493C15.0076 6.30924 14.6725 6.27623 14.3679 6.15008C14.0634 6.02394 13.8031 5.81032 13.62 5.53623C13.4368 5.26215 13.3391 4.93992 13.3391 4.61028C13.3391 4.16826 13.5147 3.74433 13.8272 3.43177C14.1398 3.11921 14.5637 2.94362 15.0057 2.94362V2.94362ZM5.00574 11.277C4.67611 11.277 4.35387 11.1792 4.07979 10.9961C3.80571 10.8129 3.59209 10.5526 3.46594 10.2481C3.3398 9.94355 3.30679 9.60844 3.3711 9.28513C3.43541 8.96183 3.59414 8.66486 3.82723 8.43177C4.06032 8.19869 4.35729 8.03995 4.68059 7.97564C5.00389 7.91133 5.339 7.94434 5.64355 8.07048C5.94809 8.19663 6.20839 8.41025 6.39152 8.68433C6.57466 8.95842 6.67241 9.28065 6.67241 9.61028C6.67241 10.0523 6.49681 10.4762 6.18425 10.7888C5.87169 11.1014 5.44777 11.277 5.00574 11.277ZM15.0057 16.277C14.6761 16.277 14.3539 16.1792 14.0798 15.9961C13.8057 15.8129 13.5921 15.5526 13.4659 15.2481C13.3398 14.9435 13.3068 14.6084 13.3711 14.2851C13.4354 13.9618 13.5941 13.6649 13.8272 13.4318C14.0603 13.1987 14.3573 13.04 14.6806 12.9756C15.0039 12.9113 15.339 12.9443 15.6435 13.0705C15.9481 13.1966 16.2084 13.4103 16.3915 13.6843C16.5747 13.9584 16.6724 14.2806 16.6724 14.6103C16.6724 15.0523 16.4968 15.4762 16.1843 15.7888C15.8717 16.1014 15.4478 16.277 15.0057 16.277Z" fill="#212121"/>
</svg>
