<svg width="24" height="24" viewBox="0 0 24 24" fill="none" xmlns="http://www.w3.org/2000/svg">
<path d="M10.5125 15.2663L10.4094 15.4163C9.78419 16.2905 8.95983 17.0032 8.0045 17.4956C7.04918 17.9879 5.99035 18.2457 4.91562 18.2476H2.75C2.55109 18.2476 2.36032 18.1686 2.21967 18.0279C2.07902 17.8873 2 17.6965 2 17.4976C2 17.2987 2.07902 17.1079 2.21967 16.9673C2.36032 16.8266 2.55109 16.7476 2.75 16.7476H4.91562C5.75046 16.7453 6.57274 16.5442 7.31449 16.1611C8.05623 15.778 8.69613 15.2239 9.18125 14.5445L9.29375 14.3945C9.34896 14.3095 9.4208 14.2366 9.50495 14.1802C9.5891 14.1238 9.68381 14.085 9.78335 14.0662C9.8829 14.0474 9.98523 14.049 10.0842 14.0708C10.1831 14.0926 10.2766 14.1342 10.359 14.1932C10.4414 14.2521 10.511 14.3272 10.5636 14.4137C10.6162 14.5003 10.6507 14.5967 10.665 14.697C10.6794 14.7972 10.6733 14.8994 10.6471 14.9973C10.6208 15.0951 10.5751 15.1867 10.5125 15.2663V15.2663ZM13.1562 10.2788C13.2367 10.3365 13.3279 10.3776 13.4243 10.3999C13.5208 10.4221 13.6207 10.4251 13.7184 10.4085C13.816 10.3919 13.9093 10.3562 13.9931 10.3034C14.0768 10.2506 14.1493 10.1817 14.2062 10.1007L14.3187 9.95071C14.7944 9.28166 15.4207 8.73372 16.1469 8.35104C16.8732 7.96837 17.6792 7.76166 18.5 7.74758V9.24758C18.4995 9.39565 18.5429 9.54055 18.6247 9.664C18.7064 9.78746 18.8229 9.88396 18.9594 9.94133C19.0519 9.97807 19.1505 9.99715 19.25 9.99758C19.4492 9.99674 19.6404 9.91957 19.7844 9.78196L22.0344 7.53196C22.1752 7.38976 22.2542 7.19772 22.2542 6.99758C22.2542 6.79745 22.1752 6.6054 22.0344 6.46321L19.7844 4.21321C19.6759 4.11146 19.5409 4.0425 19.3949 4.0143C19.2489 3.98609 19.0979 3.9998 18.9594 4.05383C18.8229 4.11121 18.7064 4.20771 18.6247 4.33116C18.5429 4.45462 18.4995 4.59951 18.5 4.74758V6.24758C17.4396 6.26274 16.3976 6.52687 15.458 7.01865C14.5183 7.51044 13.7074 8.21613 13.0906 9.07883L12.9875 9.22883C12.9294 9.30876 12.8876 9.39939 12.8647 9.49551C12.8417 9.59163 12.8379 9.69134 12.8536 9.78891C12.8693 9.88649 12.9041 9.98 12.956 10.0641C13.008 10.1482 13.076 10.2211 13.1562 10.2788ZM19.7844 14.7132C19.6759 14.6115 19.5409 14.5425 19.3949 14.5143C19.2489 14.4861 19.0979 14.4998 18.9594 14.5538C18.8229 14.6112 18.7064 14.7077 18.6247 14.8312C18.5429 14.9546 18.4995 15.0995 18.5 15.2476V16.7476C17.6792 16.7335 16.8732 16.5268 16.1469 16.1441C15.4207 15.7614 14.7944 15.2135 14.3187 14.5445L10.4094 9.07883C9.78419 8.20466 8.95983 7.49192 8.0045 6.99958C7.04918 6.50725 5.99035 6.24947 4.91562 6.24758H2.75C2.55109 6.24758 2.36032 6.3266 2.21967 6.46725C2.07902 6.60791 2 6.79867 2 6.99758C2 7.1965 2.07902 7.38726 2.21967 7.52791C2.36032 7.66857 2.55109 7.74758 2.75 7.74758H4.91562C5.75046 7.7499 6.57274 7.95093 7.31449 8.33402C8.05623 8.71712 8.69613 9.27129 9.18125 9.95071L13.0906 15.4163C13.7074 16.279 14.5183 16.9847 15.458 17.4765C16.3976 17.9683 17.4396 18.2324 18.5 18.2476V19.7476C18.4995 19.8957 18.5429 20.0405 18.6247 20.164C18.7064 20.2875 18.8229 20.384 18.9594 20.4413C19.0519 20.4781 19.1505 20.4971 19.25 20.4976C19.4492 20.4967 19.6404 20.4196 19.7844 20.282L22.0344 18.032C22.1752 17.8898 22.2542 17.6977 22.2542 17.4976C22.2542 17.2974 22.1752 17.1054 22.0344 16.9632L19.7844 14.7132Z" fill="#9E9E9E"/>
</svg>
