<svg width="32" height="32" viewBox="0 0 32 32" fill="none" xmlns="http://www.w3.org/2000/svg">
<path d="M25.468 6.94704C25.142 6.77504 24.744 6.79604 24.438 7.00404L18 11.384V7.83104C18 7.46004 17.795 7.12104 17.468 6.94704C17.142 6.77504 16.744 6.79604 16.438 7.00404L4.438 15.168C4.164 15.354 4 15.664 4 15.995C4 16.326 4.164 16.636 4.438 16.822L16.438 24.99C16.607 25.105 16.803 25.164 17 25.164C17.16 25.164 17.321 25.126 17.468 25.048C17.795 24.875 18 24.534 18 24.164V20.608L24.438 24.99C24.607 25.105 24.803 25.164 25 25.164C25.16 25.164 25.321 25.126 25.468 25.048C25.795 24.875 26 24.534 26 24.164V7.83104C26 7.46004 25.795 7.12104 25.468 6.94704Z" fill="#FF5A00"/>
</svg>
