<svg viewBox="0 0 28 28" fill="none" xmlns="http://www.w3.org/2000/svg">
  <path
    d="M11.6667 4.66683C11.3361 4.66683 11.0592 4.55483 10.836 4.33083C10.612 4.10761 10.5 3.83072 10.5 3.50016C10.5 3.16961 10.612 2.89233 10.836 2.66833C11.0592 2.44511 11.3361 2.3335 11.6667 2.3335H16.3333C16.6639 2.3335 16.9412 2.44511 17.1652 2.66833C17.3884 2.89233 17.5 3.16961 17.5 3.50016C17.5 3.83072 17.3884 4.10761 17.1652 4.33083C16.9412 4.55483 16.6639 4.66683 16.3333 4.66683H11.6667ZM14 17.5002C14.3306 17.5002 14.6078 17.3882 14.8318 17.1642C15.0551 16.9409 15.1667 16.6641 15.1667 16.3335V11.6668C15.1667 11.3363 15.0551 11.059 14.8318 10.835C14.6078 10.6118 14.3306 10.5002 14 10.5002C13.6694 10.5002 13.3926 10.6118 13.1693 10.835C12.9453 11.059 12.8333 11.3363 12.8333 11.6668V16.3335C12.8333 16.6641 12.9453 16.9409 13.1693 17.1642C13.3926 17.3882 13.6694 17.5002 14 17.5002ZM14 26.8335C12.5611 26.8335 11.2047 26.5566 9.93067 26.0028C8.65744 25.4483 7.54444 24.6946 6.59167 23.7418C5.63889 22.7891 4.88522 21.6761 4.33067 20.4028C3.77689 19.1288 3.5 17.7724 3.5 16.3335C3.5 14.8946 3.77689 13.5382 4.33067 12.2642C4.88522 10.9909 5.63889 9.87794 6.59167 8.92516C7.54444 7.97238 8.65744 7.21911 9.93067 6.66533C11.2047 6.11077 12.5611 5.8335 14 5.8335C15.2056 5.8335 16.3625 6.02794 17.4708 6.41683C18.5792 6.80572 19.6194 7.36961 20.5917 8.1085L21.4375 7.26266C21.6514 7.04877 21.9139 6.94183 22.225 6.94183C22.5361 6.94183 22.8083 7.0585 23.0417 7.29183C23.2556 7.50572 23.3625 7.77794 23.3625 8.1085C23.3625 8.43905 23.2556 8.71127 23.0417 8.92516L22.225 9.74183C22.9639 10.7141 23.5278 11.7543 23.9167 12.8627C24.3056 13.971 24.5 15.1279 24.5 16.3335C24.5 17.7724 24.2231 19.1288 23.6693 20.4028C23.1148 21.6761 22.3611 22.7891 21.4083 23.7418C20.4556 24.6946 19.3426 25.4483 18.0693 26.0028C16.7953 26.5566 15.4389 26.8335 14 26.8335ZM14 24.5002C16.2556 24.5002 18.1806 23.7029 19.775 22.1085C21.3694 20.5141 22.1667 18.5891 22.1667 16.3335C22.1667 14.0779 21.3694 12.1529 19.775 10.5585C18.1806 8.96405 16.2556 8.16683 14 8.16683C11.7444 8.16683 9.81944 8.96405 8.225 10.5585C6.63056 12.1529 5.83333 14.0779 5.83333 16.3335C5.83333 18.5891 6.63056 20.5141 8.225 22.1085C9.81944 23.7029 11.7444 24.5002 14 24.5002Z"
    fill="#212121"/>
</svg>
