<svg viewBox="0 0 28 28" fill="none" xmlns="http://www.w3.org/2000/svg">
<path d="M6.99967 21.6688C9.57334 21.6688 11.6663 19.5758 11.6663 17.0022V5.16634L22.1663 8.98367V17.652C21.4604 17.2314 20.6548 17.007 19.833 17.0022C17.2593 17.0022 15.1663 19.0952 15.1663 21.6688C15.1663 24.2425 17.2593 26.3355 19.833 26.3355C22.4067 26.3355 24.4997 24.2425 24.4997 21.6688V8.167C24.4998 7.92764 24.4262 7.69403 24.2889 7.49801C24.1515 7.30198 23.9571 7.15305 23.732 7.0715L10.8987 2.40484C10.7225 2.34043 10.5334 2.3195 10.3474 2.34382C10.1614 2.36814 9.98402 2.437 9.83033 2.54454C9.67664 2.65207 9.55117 2.79512 9.46459 2.96152C9.37801 3.12792 9.33287 3.31276 9.33301 3.50034V12.9853C8.62702 12.5647 7.82146 12.3404 6.99967 12.3355C4.42601 12.3355 2.33301 14.4285 2.33301 17.0022C2.33301 19.5758 4.42601 21.6688 6.99967 21.6688Z" fill="#212121"/>
</svg>
