<svg width="24" height="24" viewBox="0 0 24 24" fill="none" xmlns="http://www.w3.org/2000/svg">
<path d="M20.1178 13.9151C19.7861 13.9151 19.5197 14.1844 19.4932 14.5151C19.3911 15.7885 18.9653 17.0185 18.2519 18.0862C17.4269 19.3208 16.2544 20.2831 14.8825 20.8514C13.5106 21.4196 12.001 21.5683 10.5447 21.2786C9.0883 20.9889 7.75054 20.2739 6.70055 19.2239C5.65057 18.1739 4.93552 16.8361 4.64583 15.3798C4.35614 13.9234 4.50482 12.4138 5.07306 11.042C5.64131 9.67008 6.60361 8.49752 7.83826 7.67255C9.07291 6.84758 10.5245 6.40726 12.0094 6.40726H14.4119C14.7436 6.40726 15.0125 6.67617 15.0125 7.00788V8.71113C15.0125 9.24623 15.6595 9.51421 16.0378 9.13583L19.0925 6.08118C19.327 5.84663 19.327 5.46633 19.0925 5.23177L16.0378 2.17712C15.6595 1.79875 15.0125 2.06673 15.0125 2.60183V4.30507C15.0125 4.63679 14.7436 4.9057 14.4119 4.9057H12.0094C10.2275 4.9057 8.48562 5.43409 7.00404 6.42405C5.52245 7.41401 4.3677 8.82108 3.6858 10.4673C3.0039 12.1136 2.82549 13.9251 3.17312 15.6727C3.52075 17.4204 4.3788 19.0257 5.63879 20.2857C6.89877 21.5456 8.50409 22.4037 10.2517 22.7513C11.9994 23.099 13.8109 22.9205 15.4571 22.2386C17.1034 21.5567 18.5104 20.402 19.5004 18.9204C20.3789 17.6057 20.8939 16.086 20.9987 14.5153C21.0208 14.1843 20.7498 13.9151 20.4181 13.9151H20.1178Z" fill="#212121"/>
<path d="M14.7348 17.0159C14.403 17.0241 14.074 16.9546 13.7738 16.8132C13.5072 16.6779 13.2778 16.4794 13.1056 16.2351C12.9168 15.95 12.7843 15.6315 12.7152 15.2966C12.6265 14.8822 12.5837 14.4592 12.5875 14.0353C12.5845 13.6115 12.6273 13.1886 12.7152 12.774C12.7856 12.4396 12.9181 12.1213 13.1056 11.8355C13.2778 11.5912 13.5072 11.3927 13.7738 11.2574C14.074 11.116 14.403 11.0466 14.7348 11.0547C15.0467 11.031 15.3595 11.0875 15.6434 11.219C15.9272 11.3504 16.1727 11.5523 16.3565 11.8055C16.7436 12.4713 16.9264 13.2364 16.882 14.0053C16.9264 14.7742 16.7436 15.5392 16.3565 16.2051C16.1797 16.4693 15.9373 16.683 15.653 16.8252C15.3686 16.9674 15.0522 17.0331 14.7348 17.0159ZM14.7348 16.1C14.8861 16.109 15.037 16.075 15.1698 16.002C15.3027 15.9289 15.4121 15.8197 15.4856 15.687C15.665 15.3359 15.7601 14.9477 15.7633 14.5534V13.5173C15.7796 13.13 15.705 12.7444 15.5456 12.3911C15.4617 12.2625 15.347 12.1569 15.212 12.0838C15.077 12.0107 14.9259 11.9724 14.7723 11.9724C14.6188 11.9724 14.4676 12.0107 14.3326 12.0838C14.1976 12.1569 14.0829 12.2625 13.999 12.3911C13.8396 12.7444 13.765 13.13 13.7813 13.5173V14.5534C13.7658 14.943 13.8403 15.3309 13.999 15.687C14.0706 15.8179 14.1776 15.926 14.3077 15.999C14.4378 16.072 14.5858 16.107 14.7348 16.1ZM7.97774 16.9183V16.0324H9.4793V12.1358L8.08285 12.8866L7.66992 12.0908L9.41173 11.1148H10.5079V15.9949H11.8443V16.9183H7.97774Z" fill="#212121"/>
</svg>
