<svg width="24" height="24" viewBox="0 0 24 24" fill="none" xmlns="http://www.w3.org/2000/svg">
<path d="M3.88219 13.9151C4.21391 13.9151 4.48031 14.1844 4.50682 14.5151C4.60891 15.7885 5.03468 17.0185 5.74811 18.0862C6.57308 19.3208 7.74564 20.2831 9.11751 20.8514C10.4894 21.4196 11.999 21.5683 13.4553 21.2786C14.9117 20.9889 16.2495 20.2739 17.2994 19.2239C18.3494 18.1739 19.0645 16.8361 19.3542 15.3798C19.6439 13.9234 19.4952 12.4138 18.9269 11.042C18.3587 9.67008 17.3964 8.49752 16.1617 7.67255C14.9271 6.84758 13.4755 6.40726 11.9906 6.40726H9.58812C9.25641 6.40726 8.9875 6.67617 8.9875 7.00788V8.71113C8.9875 9.24623 8.34054 9.51421 7.96217 9.13583L4.90752 6.08118C4.67296 5.84663 4.67296 5.46633 4.90752 5.23177L7.96217 2.17712C8.34054 1.79875 8.9875 2.06673 8.9875 2.60183V4.30507C8.9875 4.63679 9.25641 4.9057 9.58812 4.9057H11.9906C13.7725 4.9057 15.5144 5.43409 16.996 6.42405C18.4775 7.41401 19.6323 8.82108 20.3142 10.4673C20.9961 12.1136 21.1745 13.9251 20.8269 15.6727C20.4793 17.4204 19.6212 19.0257 18.3612 20.2857C17.1012 21.5456 15.4959 22.4037 13.7483 22.7513C12.0006 23.099 10.1891 22.9205 8.54289 22.2386C6.89664 21.5567 5.48957 20.402 4.49961 18.9204C3.62114 17.6057 3.10612 16.086 3.00126 14.5153C2.97917 14.1843 3.25016 13.9151 3.58188 13.9151H3.88219Z" fill="#212121"/>
<path d="M14.7348 17.0159C14.403 17.0241 14.074 16.9546 13.7738 16.8132C13.5072 16.6779 13.2778 16.4794 13.1056 16.2351C12.9168 15.95 12.7843 15.6315 12.7152 15.2966C12.6265 14.8822 12.5837 14.4592 12.5875 14.0353C12.5845 13.6115 12.6273 13.1886 12.7152 12.774C12.7856 12.4396 12.9181 12.1213 13.1056 11.8355C13.2778 11.5912 13.5072 11.3927 13.7738 11.2574C14.074 11.116 14.403 11.0466 14.7348 11.0547C15.0467 11.031 15.3595 11.0875 15.6434 11.219C15.9272 11.3504 16.1727 11.5523 16.3565 11.8055C16.7436 12.4713 16.9264 13.2364 16.882 14.0053C16.9264 14.7742 16.7436 15.5392 16.3565 16.2051C16.1797 16.4693 15.9373 16.683 15.653 16.8252C15.3686 16.9674 15.0522 17.0331 14.7348 17.0159ZM14.7348 16.1C14.8861 16.109 15.037 16.075 15.1698 16.002C15.3027 15.9289 15.4121 15.8197 15.4856 15.687C15.665 15.3359 15.7601 14.9477 15.7633 14.5534V13.5173C15.7796 13.13 15.705 12.7444 15.5456 12.3911C15.4617 12.2625 15.347 12.1569 15.212 12.0838C15.077 12.0107 14.9259 11.9724 14.7723 11.9724C14.6188 11.9724 14.4676 12.0107 14.3326 12.0838C14.1976 12.1569 14.0829 12.2625 13.999 12.3911C13.8396 12.7444 13.765 13.13 13.7813 13.5173V14.5534C13.7658 14.943 13.8403 15.3309 13.999 15.687C14.0706 15.8179 14.1776 15.926 14.3077 15.999C14.4378 16.072 14.5858 16.107 14.7348 16.1ZM7.97774 16.9183V16.0324H9.4793V12.1358L8.08285 12.8866L7.66992 12.0908L9.41173 11.1148H10.5079V15.9949H11.8443V16.9183H7.97774Z" fill="#212121"/>
</svg>
