<svg width="20" height="20" viewBox="0 0 20 20" fill="none" xmlns="http://www.w3.org/2000/svg">
<path d="M6.80588 10.6298C6.77336 10.4329 6.74896 10.2196 6.74896 10.0063C6.74896 8.19315 8.20444 6.72459 10.0014 6.72459C10.2128 6.72459 10.4242 6.74921 10.6194 6.78202L13.3352 4.04181C12.2944 3.51674 11.1642 3.23779 10.0014 3.23779H9.99329C6.55381 3.23779 3.45585 5.67445 1.71578 9.76016C1.65073 9.91604 1.65073 10.0965 1.71578 10.2442C2.27683 11.5651 2.98424 12.7137 3.79735 13.6654L6.80588 10.6298Z" fill="#FF5A00"/>
<path d="M11.5291 8.03572C11.5616 8.23262 11.586 8.44593 11.586 8.65924C11.586 10.4724 10.1305 11.9409 8.33354 11.9409C8.12213 11.9409 7.91072 11.9163 7.71557 11.8835L4.99977 14.6237C6.04055 15.1488 7.17078 15.4277 8.33354 15.4277H8.34167C11.7811 15.4277 14.8791 12.9911 16.6192 8.90537C16.6842 8.74948 16.6842 8.56899 16.6192 8.42132C16.0581 7.10043 15.3507 5.95184 14.5376 5.00015L11.5291 8.03572Z" fill="#FF5A00"/>
</svg>
