<svg viewBox="0 0 32 32" fill="none" xmlns="http://www.w3.org/2000/svg">
<path fill-rule="evenodd" clip-rule="evenodd" d="M23.6922 11.1757H29.3337C29.3337 6.64612 26.6196 4 22.0211 4H9.97959C5.38107 4 2.66699 6.64612 2.66699 11.118V20.882C2.66699 25.3539 5.38107 28 9.97959 28H22.0211C26.6196 28 29.3337 25.3539 29.3337 20.882V20.4661H23.6922C21.0739 20.4661 18.9514 18.3967 18.9514 15.844C18.9514 13.2913 21.0739 11.222 23.6922 11.222V11.1757ZM23.6922 13.1632H28.3381C28.8879 13.1632 29.3337 13.5978 29.3337 14.1338V17.5079C29.3273 18.0414 28.8853 18.4723 28.3381 18.4786H23.7988C22.4734 18.496 21.3143 17.6112 21.0137 16.3524C20.8631 15.5711 21.0745 14.7648 21.5911 14.1496C22.1077 13.5345 22.8768 13.1734 23.6922 13.1632ZM23.8937 16.7106H24.3322C24.8951 16.7106 25.3514 16.2657 25.3514 15.7169C25.3514 15.1681 24.8951 14.7232 24.3322 14.7232H23.8937C23.6244 14.7201 23.3651 14.8222 23.1736 15.0067C22.9821 15.1912 22.8744 15.4428 22.8744 15.7053C22.8744 16.2561 23.3288 16.7043 23.8937 16.7106ZM8.98403 11.1757H16.51C17.0729 11.1757 17.5292 10.7308 17.5292 10.182C17.5292 9.63317 17.0729 9.18825 16.51 9.18825H8.98403C8.4257 9.18822 7.97126 9.62613 7.96477 10.1704C7.96473 10.7212 8.4192 11.1694 8.98403 11.1757Z" fill="#FF5A00"/>
</svg>
